<svg xmlns="http://www.w3.org/2000/svg" xmlns:xlink="http://www.w3.org/1999/xlink" viewBox="0 0 148.25 33.71"><defs><style>.cls-1{fill:none;}.cls-2{fill:#e1701e;}.cls-3{clip-path:url(#clip-path);}.cls-4{fill:#fff;}</style><clipPath id="clip-path" transform="translate(0 0)"><rect class="cls-1" width="33.71" height="33.71"/></clipPath></defs><g id="Layer_2" data-name="Layer 2"><g id="tiles"><rect class="cls-2" width="33.71" height="33.71"/><g class="cls-3"><path class="cls-4" d="M21.39,13.33A6.3,6.3,0,0,1,17.92,16a8.68,8.68,0,0,1,1-4.72,7.28,7.28,0,0,1,3.6-2.87,10.13,10.13,0,0,1-1.17,4.94" transform="translate(0 0)"/><path class="cls-4" d="M15.9,11.48a6.28,6.28,0,0,1,.73,4.31,8.68,8.68,0,0,1-3.7-3.13,7.42,7.42,0,0,1-.86-4.53,10.21,10.21,0,0,1,3.83,3.35" transform="translate(0 0)"/><path class="cls-4" d="M21.05,28.85a6.25,6.25,0,0,1-3.47,2.65,8.62,8.62,0,0,1,1-4.72,7.4,7.4,0,0,1,3.6-2.88,10.19,10.19,0,0,1-1.16,5" transform="translate(0 0)"/><path class="cls-4" d="M16.11,27.06a6.25,6.25,0,0,1,.72,4.29,8.68,8.68,0,0,1-3.7-3.12,7.37,7.37,0,0,1-.85-4.53,10.17,10.17,0,0,1,3.83,3.36" transform="translate(0 0)"/><path class="cls-4" d="M18.65,6.7a8.05,8.05,0,0,1-1.57,4.42,7,7,0,0,1-1.52-4.24,9.43,9.43,0,0,1,1.58-4.67A8.25,8.25,0,0,1,18.65,6.7" transform="translate(0 0)"/><path class="cls-4" d="M20.9,22.34A6.2,6.2,0,0,1,17.44,25a8.81,8.81,0,0,1,1-4.73,7.44,7.44,0,0,1,3.6-2.87,10,10,0,0,1-1.16,4.94" transform="translate(0 0)"/><path class="cls-4" d="M16,20.85a6.28,6.28,0,0,1,.73,4.31A8.68,8.68,0,0,1,13,22a7.4,7.4,0,0,1-.86-4.52A10.13,10.13,0,0,1,16,20.85" transform="translate(0 0)"/><path class="cls-4" d="M3.48,14.61s2.71-4.11,6.3-2.25c2.89,1.5,7.92,4.92,11.55,7.4C24.58,22,25.78,23.05,28.09,22s2.32-2.25,2.32-2.08a6.27,6.27,0,0,1-2.2,3.53,5.19,5.19,0,0,1-5.14.51c-1.91-.86-9.88-6.73-12.54-8.32C8.68,14.55,7,13.11,5,14c-1.75.84-2,1.38-1.56.57" transform="translate(0 0)"/></g><path class="cls-2" d="M143,11.74a3.46,3.46,0,0,1-1.34-1.47l1.27-1.06a3.1,3.1,0,0,0,.94,1.1,2.29,2.29,0,0,0,1.32.4,1.53,1.53,0,0,0,1-.3.94.94,0,0,0-.06-1.55,5.89,5.89,0,0,0-1.47-.57,4.24,4.24,0,0,1-1.81-.92,2,2,0,0,1-.69-1.56,2,2,0,0,1,.39-1.23,2.66,2.66,0,0,1,1.06-.86A3.41,3.41,0,0,1,145,3.41a3.32,3.32,0,0,1,1.73.43A3,3,0,0,1,147.88,5l-1.15,1a2.15,2.15,0,0,0-.78-.78,2,2,0,0,0-.93-.24,1.56,1.56,0,0,0-.91.24.68.68,0,0,0-.34.6.81.81,0,0,0,.42.7,6.87,6.87,0,0,0,1.54.56,4.29,4.29,0,0,1,1.85.93,2.15,2.15,0,0,1,.67,1.63,2.44,2.44,0,0,1-.4,1.36,2.67,2.67,0,0,1-1.13,1,3.83,3.83,0,0,1-1.67.35A4,4,0,0,1,143,11.74Z" transform="translate(0 0)"/><path class="cls-2" d="M140.13,8.34h-6.49a2.61,2.61,0,0,0,.79,1.74,2.41,2.41,0,0,0,1.69.63,2.5,2.5,0,0,0,1.34-.35,3.22,3.22,0,0,0,1-1l1.46.8a4.41,4.41,0,0,1-1.6,1.61,4.64,4.64,0,0,1-2.33.54,4.07,4.07,0,0,1-2.26-.62A4.14,4.14,0,0,1,132.33,10a4.83,4.83,0,0,1-.49-2.17,4.74,4.74,0,0,1,.51-2.16A4,4,0,0,1,133.81,4,3.92,3.92,0,0,1,136,3.41a4.07,4.07,0,0,1,2.21.59,3.83,3.83,0,0,1,1.42,1.54,4.5,4.5,0,0,1,.48,2.07Zm-1.8-1.43a2.21,2.21,0,0,0-.75-1.4,2.4,2.4,0,0,0-3,0,2.56,2.56,0,0,0-.84,1.43Z" transform="translate(0 0)"/><path class="cls-2" d="M127,11.55a3,3,0,0,1-.69-2.16V5.08h-1.35V3.54h1.35V1.93L128.06.82V3.54h2.21V5.08h-2.21V9.32c0,.89.35,1.33,1.06,1.33a1.42,1.42,0,0,0,1-.41l.82,1.35a3.11,3.11,0,0,1-2,.68A2.61,2.61,0,0,1,127,11.55Z" transform="translate(0 0)"/><path class="cls-2" d="M115.93,3.54h1.75V5a3.07,3.07,0,0,1,1.12-1.17,3.16,3.16,0,0,1,1.59-.43,2.77,2.77,0,0,1,2.09.79,3.1,3.1,0,0,1,.74,2.19v5.75h-1.76V6.78a1.92,1.92,0,0,0-.39-1.3A1.47,1.47,0,0,0,119.89,5a1.85,1.85,0,0,0-1.61.9,4.3,4.3,0,0,0-.6,2.43v3.78h-1.75Z" transform="translate(0 0)"/><path class="cls-2" d="M113.77,8.34h-6.5a2.66,2.66,0,0,0,.8,1.74,2.4,2.4,0,0,0,1.68.63,2.51,2.51,0,0,0,1.35-.35,3.32,3.32,0,0,0,1-1l1.46.8a4.49,4.49,0,0,1-1.6,1.61,4.64,4.64,0,0,1-2.33.54,4,4,0,0,1-2.26-.62A4,4,0,0,1,106,10a4.83,4.83,0,0,1-.49-2.17,4.73,4.73,0,0,1,.5-2.16A4.08,4.08,0,0,1,107.45,4a3.91,3.91,0,0,1,2.2-.63,4.09,4.09,0,0,1,2.22.59,3.74,3.74,0,0,1,1.41,1.54,4.39,4.39,0,0,1,.49,2.07ZM112,6.91a2.21,2.21,0,0,0-.75-1.4A2.28,2.28,0,0,0,109.65,5a2.22,2.22,0,0,0-1.45.52,2.56,2.56,0,0,0-.84,1.43Z" transform="translate(0 0)"/><path class="cls-2" d="M91.24,3.54H93V5a2.89,2.89,0,0,1,1.07-1.17,3,3,0,0,1,3.08,0A2.36,2.36,0,0,1,98,5.08a2.84,2.84,0,0,1,1.13-1.24,3.15,3.15,0,0,1,1.58-.43,2.53,2.53,0,0,1,1.89.71,2.8,2.8,0,0,1,.69,2v6h-1.75V6.59a1.67,1.67,0,0,0-.36-1.15,1.3,1.3,0,0,0-1-.41,1.7,1.7,0,0,0-1.46.79,4.14,4.14,0,0,0-.56,2.37v4H96.4V6.59A1.67,1.67,0,0,0,96,5.44,1.27,1.27,0,0,0,95,5a1.73,1.73,0,0,0-1.45.8A4,4,0,0,0,93,8.19v4H91.24Z" transform="translate(0 0)"/><path class="cls-2" d="M81.23,3.54H83V5a3.08,3.08,0,0,1,2.72-1.6,2.75,2.75,0,0,1,2.08.79,3.06,3.06,0,0,1,.75,2.19v5.75H86.75V6.78a1.92,1.92,0,0,0-.39-1.3A1.46,1.46,0,0,0,85.19,5a1.86,1.86,0,0,0-1.62.9A4.3,4.3,0,0,0,83,8.36v3.78H81.23Z" transform="translate(0 0)"/><path class="cls-2" d="M79.06,8.34H72.57a2.61,2.61,0,0,0,.8,1.74,2.37,2.37,0,0,0,1.68.63,2.56,2.56,0,0,0,1.35-.35,3.29,3.29,0,0,0,1-1l1.47.8a4.57,4.57,0,0,1-1.6,1.61,4.68,4.68,0,0,1-2.34.54,4.07,4.07,0,0,1-2.26-.62A4.14,4.14,0,0,1,71.26,10a4.83,4.83,0,0,1-.49-2.17,4.74,4.74,0,0,1,.51-2.16A4.06,4.06,0,0,1,72.74,4,3.94,3.94,0,0,1,75,3.41,4.07,4.07,0,0,1,77.16,4a3.76,3.76,0,0,1,1.42,1.54,4.5,4.5,0,0,1,.48,2.07Zm-1.8-1.43a2.12,2.12,0,0,0-.75-1.4,2.4,2.4,0,0,0-3,0,2.68,2.68,0,0,0-.84,1.43ZM75.3.05h2.41L75.55,2.48H74.2Z" transform="translate(0 0)"/><path class="cls-2" d="M65.92,11.55a3,3,0,0,1-.69-2.16V5.08H63.88V3.54h1.35V1.93L67,.82V3.54H69.2V5.08H67V9.32c0,.89.35,1.33,1.07,1.33a1.41,1.41,0,0,0,1-.41l.82,1.35a3.11,3.11,0,0,1-2,.68A2.59,2.59,0,0,1,65.92,11.55Z" transform="translate(0 0)"/><path class="cls-2" d="M62.07,12.14H60.31V10.67a3.07,3.07,0,0,1-1.12,1.17,3,3,0,0,1-1.58.43,2.71,2.71,0,0,1-2.08-.79,3.06,3.06,0,0,1-.75-2.19V3.54h1.75V8.91a2,2,0,0,0,.39,1.3,1.47,1.47,0,0,0,1.18.44,1.84,1.84,0,0,0,1.61-.89,4.34,4.34,0,0,0,.6-2.44V3.54h1.76Z" transform="translate(0 0)"/><path class="cls-2" d="M52,12.14H50.3V.35H52Z" transform="translate(0 0)"/><path class="cls-2" d="M47.75,11a2.21,2.21,0,0,1,.75,1.77,2.42,2.42,0,0,1-1,2.16,4.59,4.59,0,0,1-2.62.71,4.48,4.48,0,0,1-2.68-.73,2.37,2.37,0,0,1-1-2,2.24,2.24,0,0,1,.19-.9,2.07,2.07,0,0,1,.61-.81,1.69,1.69,0,0,1-.57-1.3,1.91,1.91,0,0,1,1-1.68,2.82,2.82,0,0,1-.67-1.87,2.81,2.81,0,0,1,.41-1.53,2.76,2.76,0,0,1,1.11-1,3.54,3.54,0,0,1,3.07,0l.9-.89,1,1-.82.83a2.89,2.89,0,0,1,.48,1.63,2.86,2.86,0,0,1-.4,1.53,2.83,2.83,0,0,1-1.12,1,3.31,3.31,0,0,1-1.57.37A3.4,3.4,0,0,1,43.48,9a.78.78,0,0,0-.35.32A.77.77,0,0,0,43,9.7a.59.59,0,0,0,.23.51,1,1,0,0,0,.62.18h1.85A3,3,0,0,1,47.75,11Zm-1.52,2.82a1,1,0,0,0,.5-.91c0-.71-.47-1.07-1.41-1.07H44.05a4,4,0,0,1-.93-.1,1.57,1.57,0,0,0-.33,1,1.14,1.14,0,0,0,.54,1,2.73,2.73,0,0,0,1.5.36A2.61,2.61,0,0,0,46.23,13.85ZM43.8,5.28a1.36,1.36,0,0,0-.42,1,1.36,1.36,0,0,0,.42,1,1.41,1.41,0,0,0,1,.4,1.4,1.4,0,0,0,1.43-1.45,1.36,1.36,0,0,0-.42-1,1.37,1.37,0,0,0-1-.4A1.41,1.41,0,0,0,43.8,5.28Z" transform="translate(0 0)"/></g></g></svg>