<svg xmlns="http://www.w3.org/2000/svg" xmlns:xlink="http://www.w3.org/1999/xlink" viewBox="0 0 125.79 83.85"><defs><style>.cls-1{fill:none;}.cls-2{clip-path:url(#clip-path);}.cls-3{fill:#109251;}.cls-4{fill:#fff;}.cls-5{fill:#d52e37;}.cls-6{font-size:14.5px;}.cls-11,.cls-6{font-family:TESCOModern-Medium, TESCO Modern;font-weight:500;}.cls-7{letter-spacing:0.01em;}.cls-8{letter-spacing:0.01em;}.cls-9{letter-spacing:0.01em;}.cls-10{letter-spacing:0.01em;}.cls-11{font-size:10.44px;}.cls-12{letter-spacing:-0.02em;}.cls-13{letter-spacing:0em;}.cls-14{letter-spacing:0em;}.cls-15{letter-spacing:-0.01em;}.cls-16{letter-spacing:-0.01em;}.cls-17{letter-spacing:-0.01em;}.cls-18{letter-spacing:-0.03em;}.cls-19{letter-spacing:-0.01em;}.cls-20{letter-spacing:-0.01em;}.cls-21{letter-spacing:0em;}.cls-22{letter-spacing:0.02em;}.cls-23{letter-spacing:0.01em;}</style><clipPath id="clip-path" transform="translate(0)"><rect class="cls-1" width="125.78" height="83.85"/></clipPath></defs><g id="Layer_2" data-name="Layer 2"><g id="tiles"><g class="cls-2"><rect class="cls-3" y="55.9" width="125.78" height="27.95"/><rect class="cls-4" y="27.95" width="125.78" height="27.95"/><rect class="cls-5" width="125.78" height="27.95"/><polygon class="cls-4" points="0 0 0 83.85 90.33 83.85 54.64 0 0 0"/></g><path d="M.2.2H0V83.85H125.78V0H0V.2H.2V.39H125.59V.2h-.2V83.66h.2v-.2H.2v.2H.39V.2H.2v0Z" transform="translate(0)"/><text class="cls-6" transform="translate(8.92 32.63)"><tspan class="cls-7">H</tspan><tspan class="cls-8" x="10.21" y="0">a</tspan><tspan class="cls-9" x="17.98" y="0">z</tspan><tspan class="cls-10" x="24.94" y="0">a</tspan><tspan x="32.78" y="0">i</tspan></text><text class="cls-11" transform="translate(8.92 47.13) scale(1 1.11)"><tspan class="cls-12">f</tspan><tspan class="cls-13" x="3.48" y="0">e</tspan><tspan class="cls-14" x="9.4" y="0">l</tspan><tspan class="cls-15" x="12.04" y="0">do</tspan><tspan class="cls-16" x="24.42" y="0">l</tspan><tspan class="cls-17" x="27" y="0">g</tspan><tspan class="cls-18" x="32.07" y="0">o</tspan><tspan class="cls-15" x="38.03" y="0">z</tspan><tspan class="cls-19" x="42.84" y="0">á</tspan><tspan class="cls-20" x="48.29" y="0">s</tspan><tspan x="53.11" y="0">ú </tspan></text><text class="cls-6" transform="translate(8.92 63.08)"><tspan class="cls-21">t</tspan><tspan class="cls-22" x="5.68" y="0">e</tspan><tspan class="cls-7" x="14.17" y="0">r</tspan><tspan class="cls-23" x="20.5" y="0">m</tspan><tspan class="cls-22" x="33.38" y="0">é</tspan><tspan x="41.86" y="0">k</tspan></text></g></g></svg>