<?xml version="1.0" encoding="utf-8"?>
<svg viewBox="0 0 150 33.71" xmlns="http://www.w3.org/2000/svg">
  <defs>
    <style>.cls-1{fill:none;}.cls-2{fill:#7f3f98;}.cls-3{clip-path:url(#clip-path);}.cls-4{fill:#fff;}</style>
    <clipPath id="clip-path" transform="translate(0 0)">
      <rect class="cls-1" width="33.71" height="33.71"/>
    </clipPath>
  </defs>
  <g id="Layer_2" data-name="Layer 2">
    <g id="tiles">
      <rect class="cls-2" width="33.71" height="33.71"/>
      <g class="cls-3">
        <path class="cls-4" d="M21.85,13.08a12.16,12.16,0,0,0-2-3.9C19,8,18.78,8,18.7,7a9.91,9.91,0,0,1,0-1.71.65.65,0,0,0,.24-.51.83.83,0,0,0-.28-.55s0-.61-.36-.61H15.41c-.38,0-.36.61-.36.61a.83.83,0,0,0-.28.55.64.64,0,0,0,.25.51A11.32,11.32,0,0,1,15,7c-.08,1-.35,1.06-1.15,2.2a12.14,12.14,0,0,0-2,3.9,9.64,9.64,0,0,0-.34,3.07l.07,11.11A3.21,3.21,0,0,0,12.25,29a2.65,2.65,0,0,0,1.55,1l2.66.06v0h.79v0L19.91,30a2.68,2.68,0,0,0,1.56-1,3.24,3.24,0,0,0,.64-1.75l.08-11.11a10,10,0,0,0-.34-3.07" transform="translate(0 0)"/>
        <polygon class="cls-4" points="7.21 27.36 27.46 7.29 26.51 6.34 6.26 26.42 7.21 27.36"/>
        <polygon class="cls-4" points="27.36 26.5 7.29 6.25 6.35 7.2 26.42 27.45 27.36 26.5"/>
      </g>
      <path class="cls-2" d="M86.78,3.54v.82L83,10.52h4v1.61H80.64v-.8l3.79-6.17H80.87V3.54Z" transform="translate(0 0)"/>
      <path class="cls-2" d="M71.16,5.59A4,4,0,0,1,72.68,4,4.34,4.34,0,0,1,75,3.41,4.39,4.39,0,0,1,77.24,4a4,4,0,0,1,1.51,1.6,4.73,4.73,0,0,1,.54,2.25,4.67,4.67,0,0,1-.54,2.24,4,4,0,0,1-1.51,1.6,4.4,4.4,0,0,1-2.28.59,4.35,4.35,0,0,1-2.28-.59,4,4,0,0,1-1.52-1.6,4.78,4.78,0,0,1-.53-2.24A4.85,4.85,0,0,1,71.16,5.59Zm2,4.27a2.3,2.3,0,0,0,1.83.79,2.36,2.36,0,0,0,1.85-.79,3,3,0,0,0,.7-2,3,3,0,0,0-.7-2A2.36,2.36,0,0,0,75,5a2.31,2.31,0,0,0-1.83.8,2.91,2.91,0,0,0-.7,2A2.92,2.92,0,0,0,73.13,9.86ZM74.84.05h2.42L75.09,2.48H73.74Z" transform="translate(0 0)"/>
      <path class="cls-2" d="M65.78,11.54a3,3,0,0,1-.69-2.15V5.07H63.74V3.54h1.35V1.93L66.85.81V3.54h2.22V5.07H66.85V9.32c0,.89.36,1.33,1.07,1.33a1.48,1.48,0,0,0,1-.41l.81,1.34a3,3,0,0,1-2,.69A2.61,2.61,0,0,1,65.78,11.54Z" transform="translate(0 0)"/>
      <path class="cls-2" d="M57.24,7.06l3.07-3.52h2.13L59,7.5l3.61,4.63H60.52L57.24,7.94v4.19H55.49V.34h1.75Z" transform="translate(0 0)"/>
      <path class="cls-2" d="M47.14,12a2.44,2.44,0,0,1-1-.88,2.37,2.37,0,0,1-.39-1.37,2.46,2.46,0,0,1,1-2.06,4.27,4.27,0,0,1,2.64-.76h1.85V6.54a1.46,1.46,0,0,0-.51-1.17,2.07,2.07,0,0,0-1.36-.43,2.2,2.2,0,0,0-1.21.35,2.35,2.35,0,0,0-.82.87l-1.34-.82A3.5,3.5,0,0,1,47.24,4a3.79,3.79,0,0,1,2.07-.55A3.93,3.93,0,0,1,52,4.24a3,3,0,0,1,1,2.36v5.53H51.51l-.26-1.2a3.08,3.08,0,0,1-1.11,1,3.37,3.37,0,0,1-1.57.37A3.43,3.43,0,0,1,47.14,12Zm3.38-1.82a2,2,0,0,0,.66-1.53V8.34h-1.7A2.56,2.56,0,0,0,48,8.68a1.05,1.05,0,0,0-.51.92,1,1,0,0,0,.38.84,1.59,1.59,0,0,0,1,.3A2.32,2.32,0,0,0,50.52,10.15Z" transform="translate(0 0)"/>
      <path class="cls-2" d="M43.47,12.13H41.72V.34h1.75Z" transform="translate(0 0)"/>
      <path class="cls-2" d="M 88.403 3.525 L 90.153 3.525 L 90.153 4.955 C 90.394 4.474 90.76 4.066 91.213 3.775 C 91.677 3.494 92.211 3.348 92.753 3.355 C 93.298 3.336 93.836 3.486 94.293 3.785 C 94.728 4.081 95.047 4.52 95.193 5.025 C 95.444 4.513 95.836 4.083 96.323 3.785 C 96.804 3.499 97.354 3.35 97.913 3.355 C 98.614 3.319 99.299 3.576 99.803 4.065 C 100.286 4.616 100.533 5.334 100.493 6.065 L 100.493 12.065 L 98.743 12.065 L 98.743 6.575 C 98.772 6.155 98.64 5.74 98.373 5.415 C 98.113 5.142 97.75 4.993 97.373 5.005 C 96.782 5.005 96.231 5.306 95.913 5.805 C 95.495 6.521 95.303 7.348 95.363 8.175 L 95.363 12.115 L 93.563 12.115 L 93.563 6.575 C 93.59 6.157 93.462 5.744 93.203 5.415 C 92.945 5.14 92.58 4.99 92.203 5.005 C 91.61 5.009 91.06 5.314 90.743 5.815 C 90.319 6.526 90.12 7.349 90.173 8.175 L 90.173 12.115 L 88.403 12.115 Z"/>
      <path class="cls-2" d="M 110.933 8.325 L 104.433 8.325 C 104.476 8.984 104.761 9.603 105.233 10.065 C 105.694 10.477 106.295 10.699 106.913 10.685 C 107.386 10.701 107.854 10.583 108.263 10.345 C 108.662 10.085 109.003 9.744 109.263 9.345 L 110.723 10.145 C 110.336 10.81 109.785 11.364 109.123 11.755 C 108.407 12.136 107.604 12.322 106.793 12.295 C 105.994 12.316 105.206 12.096 104.533 11.665 C 103.911 11.242 103.425 10.648 103.133 9.955 C 102.823 9.289 102.669 8.56 102.683 7.825 C 102.676 7.072 102.847 6.329 103.183 5.655 C 103.519 4.988 104.027 4.422 104.653 4.015 C 105.31 3.599 106.075 3.383 106.853 3.395 C 107.633 3.372 108.404 3.573 109.073 3.975 C 109.678 4.347 110.166 4.88 110.483 5.515 C 110.811 6.155 110.979 6.866 110.973 7.585 Z M 109.133 6.895 C 109.068 6.351 108.8 5.851 108.383 5.495 C 107.946 5.124 107.386 4.931 106.813 4.955 C 106.282 4.945 105.767 5.13 105.363 5.475 C 104.932 5.845 104.637 6.348 104.523 6.905 Z"/>
      <path class="cls-2" d="M 113.093 3.525 L 114.843 3.525 L 114.843 4.955 C 115.372 3.953 116.42 3.334 117.553 3.355 C 118.33 3.309 119.09 3.597 119.643 4.145 C 120.167 4.75 120.432 5.536 120.383 6.335 L 120.383 12.075 L 118.623 12.075 L 118.623 6.755 C 118.654 6.289 118.515 5.827 118.233 5.455 C 117.924 5.14 117.493 4.975 117.053 5.005 C 116.394 4.997 115.781 5.34 115.443 5.905 C 115.007 6.641 114.798 7.49 114.843 8.345 L 114.843 12.115 L 113.093 12.115 Z"/>
      <path class="cls-2" d="M 124.198 11.415 C 123.697 10.816 123.449 10.044 123.508 9.265 L 123.508 4.955 L 122.158 4.955 L 122.158 3.415 L 123.508 3.415 L 123.508 1.845 L 125.268 0.725 L 125.268 3.455 L 127.488 3.455 L 127.488 4.995 L 125.268 4.995 L 125.268 9.235 C 125.268 10.125 125.628 10.565 126.338 10.565 C 126.711 10.559 127.068 10.413 127.338 10.155 L 128.148 11.495 C 127.587 11.96 126.876 12.206 126.148 12.185 C 125.418 12.217 124.709 11.937 124.198 11.415 Z"/>
      <path class="cls-2" d="M 137.303 8.325 L 130.813 8.325 C 130.853 8.985 131.138 9.606 131.613 10.065 C 132.072 10.481 132.674 10.703 133.293 10.685 C 133.779 10.706 134.261 10.588 134.683 10.345 C 135.083 10.086 135.423 9.745 135.683 9.345 L 137.143 10.145 C 136.76 10.809 136.213 11.364 135.553 11.755 C 134.833 12.136 134.027 12.322 133.213 12.295 C 132.414 12.316 131.626 12.096 130.953 11.665 C 130.317 11.245 129.813 10.652 129.503 9.955 C 129.173 9.28 129.005 8.537 129.013 7.785 C 129.01 7.032 129.184 6.288 129.523 5.615 C 129.855 4.948 130.359 4.382 130.983 3.975 C 131.643 3.557 132.412 3.341 133.193 3.355 C 133.97 3.333 134.737 3.535 135.403 3.935 C 136.011 4.306 136.502 4.839 136.823 5.475 C 137.144 6.118 137.308 6.827 137.303 7.545 Z M 135.503 6.895 C 135.446 6.348 135.177 5.846 134.753 5.495 C 134.319 5.126 133.762 4.933 133.193 4.955 C 132.659 4.946 132.141 5.13 131.733 5.475 C 131.306 5.848 131.011 6.35 130.893 6.905 Z"/>
      <path class="cls-2" d="M 140.178 11.824 C 139.596 11.482 139.129 10.974 138.838 10.364 L 140.108 9.294 C 140.328 9.737 140.655 10.118 141.058 10.404 C 141.443 10.668 141.901 10.804 142.368 10.794 C 142.725 10.818 143.079 10.715 143.368 10.504 C 143.619 10.329 143.766 10.04 143.758 9.734 C 143.764 9.408 143.591 9.105 143.308 8.944 C 142.843 8.697 142.349 8.509 141.838 8.384 C 141.168 8.227 140.546 7.908 140.028 7.454 C 139.235 6.738 139.11 5.539 139.738 4.674 C 139.99 4.305 140.335 4.008 140.738 3.814 C 141.206 3.601 141.715 3.496 142.228 3.504 C 142.829 3.488 143.422 3.633 143.948 3.924 C 144.429 4.191 144.826 4.586 145.098 5.064 L 143.948 6.064 C 143.763 5.739 143.493 5.469 143.168 5.284 C 142.88 5.137 142.561 5.061 142.238 5.064 C 141.917 5.048 141.599 5.132 141.328 5.304 C 141.117 5.426 140.988 5.651 140.988 5.894 C 140.989 6.187 141.151 6.455 141.408 6.594 C 141.894 6.85 142.412 7.042 142.948 7.164 C 143.631 7.318 144.267 7.638 144.798 8.094 C 145.25 8.513 145.495 9.109 145.468 9.724 C 145.474 10.207 145.335 10.681 145.068 11.084 C 144.793 11.514 144.406 11.86 143.948 12.084 C 143.421 12.324 142.847 12.443 142.268 12.434 C 141.528 12.428 140.805 12.217 140.178 11.824 Z"/>
    </g>
  </g>
</svg>