<svg xmlns="http://www.w3.org/2000/svg" xmlns:xlink="http://www.w3.org/1999/xlink" viewBox="0 0 125.79 83.85"><defs><style>.cls-1{fill:none;}.cls-2{clip-path:url(#clip-path);}.cls-3{fill:#109251;}.cls-4{fill:#fff;}.cls-5{fill:#d52e37;}.cls-11,.cls-6{font-size:15.74px;font-family:TESCOModern-Medium, TESCO Modern;font-weight:500;}.cls-7{letter-spacing:0.01em;}.cls-8{letter-spacing:0.01em;}.cls-9{letter-spacing:0.01em;}.cls-10{letter-spacing:0.01em;}.cls-11{letter-spacing:-0.01em;}.cls-12{letter-spacing:0.02em;}.cls-13{letter-spacing:0.01em;}.cls-14{letter-spacing:0em;}</style><clipPath id="clip-path" transform="translate(0)"><rect class="cls-1" width="125.78" height="83.85"/></clipPath></defs><g id="Layer_2" data-name="Layer 2"><g id="tiles"><g class="cls-2"><rect class="cls-3" y="55.9" width="125.78" height="27.95"/><rect class="cls-4" y="27.95" width="125.78" height="27.95"/><rect class="cls-5" width="125.78" height="27.95"/><polygon class="cls-4" points="0 0 0 83.85 90.33 83.85 54.64 0 0 0"/></g><text class="cls-6" transform="translate(8.92 38.78)"><tspan class="cls-7">H</tspan><tspan class="cls-8" x="11.08" y="0">a</tspan><tspan class="cls-9" x="19.51" y="0">z</tspan><tspan class="cls-10" x="27.06" y="0">a</tspan><tspan x="35.58" y="0">i</tspan></text><text class="cls-11" transform="translate(8.92 56.09)">t<tspan class="cls-12" x="6.17" y="0">e</tspan><tspan class="cls-7" x="15.37" y="0">r</tspan><tspan class="cls-13" x="22.25" y="0">m</tspan><tspan class="cls-12" x="36.22" y="0">é</tspan><tspan class="cls-14" x="45.43" y="0">k</tspan></text><path d="M.2.2H0V83.85H125.78V0H0V.2H.2V.39H125.59V.2h-.2V83.66h.2v-.2H.2v.2H.39V.2H.2v0Z" transform="translate(0)"/></g></g></svg>