<svg xmlns="http://www.w3.org/2000/svg" xmlns:xlink="http://www.w3.org/1999/xlink" viewBox="0 0 172.48 34.56"><defs><style>.cls-1{fill:none;}.cls-2{fill:#ed0677;}.cls-3{clip-path:url(#clip-path);}.cls-4{fill:#fff;}</style><clipPath id="clip-path" transform="translate(0 0)"><rect class="cls-1" width="33.71" height="33.71"/></clipPath></defs><g id="Layer_2" data-name="Layer 2"><g id="tiles"><rect class="cls-2" width="33.71" height="33.71"/><g class="cls-3"><path class="cls-4" d="M11.55,19.14A4.15,4.15,0,1,1,7.4,23.29a4.15,4.15,0,0,1,4.15-4.15" transform="translate(0 0)"/><path class="cls-4" d="M18.48,4.85A4.15,4.15,0,1,1,14.33,9a4.15,4.15,0,0,1,4.15-4.16" transform="translate(0 0)"/><path class="cls-4" d="M25.55,11.79a4.15,4.15,0,1,1-4.15,4.15,4.15,4.15,0,0,1,4.15-4.15" transform="translate(0 0)"/><path class="cls-4" d="M21.31,20.56a4.15,4.15,0,1,1-4.15,4.15,4.15,4.15,0,0,1,4.15-4.15" transform="translate(0 0)"/><path class="cls-4" d="M9.54,9.18a4.15,4.15,0,1,1-4.15,4.15A4.15,4.15,0,0,1,9.54,9.18" transform="translate(0 0)"/></g><path class="cls-2" d="M168.52,11.55a3,3,0,0,1-.69-2.16V5.08h-1.35V3.54h1.35V1.93L169.6.81V3.54h2.21V5.08H169.6V9.32c0,.89.35,1.33,1.06,1.33a1.46,1.46,0,0,0,1-.41l.82,1.34a3.06,3.06,0,0,1-2,.69A2.61,2.61,0,0,1,168.52,11.55Z" transform="translate(0 0)"/><path class="cls-2" d="M161.56,11.55a3,3,0,0,1-.69-2.16V5.08h-1.35V3.54h1.35V1.93L162.63.81V3.54h2.21V5.08h-2.21V9.32c0,.89.35,1.33,1.07,1.33a1.45,1.45,0,0,0,1-.41l.82,1.34a3.06,3.06,0,0,1-2,.69A2.59,2.59,0,0,1,161.56,11.55Z" transform="translate(0 0)"/><path class="cls-2" d="M150.23,5.59A4,4,0,0,1,151.74,4a4.79,4.79,0,0,1,4.57,0,4,4,0,0,1,1.51,1.6,4.73,4.73,0,0,1,.53,2.25,4.73,4.73,0,0,1-.53,2.25,3.92,3.92,0,0,1-1.51,1.59,4.72,4.72,0,0,1-4.57,0,3.92,3.92,0,0,1-1.51-1.59,4.73,4.73,0,0,1-.53-2.25A4.73,4.73,0,0,1,150.23,5.59Zm2,4.27a2.54,2.54,0,0,0,3.68,0,2.91,2.91,0,0,0,.7-2,2.91,2.91,0,0,0-.7-2,2.52,2.52,0,0,0-3.68,0,3,3,0,0,0-.7,2A3,3,0,0,0,152.19,9.86Z" transform="translate(0 0)"/><path class="cls-2" d="M148.1,3.54v.82l-3.74,6.16h4v1.62H142v-.8l3.8-6.18h-3.57V3.54Z" transform="translate(0 0)"/><path class="cls-2" d="M132.49,5.59A4,4,0,0,1,134,4a4.49,4.49,0,0,1,2.28-.58,4.44,4.44,0,0,1,2.28.58,4,4,0,0,1,1.52,1.6,4.85,4.85,0,0,1,.53,2.25,4.85,4.85,0,0,1-.53,2.25,3.94,3.94,0,0,1-1.52,1.59,4.35,4.35,0,0,1-2.28.59,4.4,4.4,0,0,1-2.28-.59,3.92,3.92,0,0,1-1.51-1.59A4.73,4.73,0,0,1,132,7.84,4.73,4.73,0,0,1,132.49,5.59Zm2,4.27a2.54,2.54,0,0,0,3.68,0,2.91,2.91,0,0,0,.7-2,2.91,2.91,0,0,0-.7-2,2.52,2.52,0,0,0-3.68,0,2.91,2.91,0,0,0-.7,2A2.91,2.91,0,0,0,134.45,9.86Z" transform="translate(0 0)"/><path class="cls-2" d="M126.43,11.75l-3.1-8.21h1.78l2.18,5.93,2-5.93h1.76l-4.34,12h-1.7Z" transform="translate(0 0)"/><path class="cls-2" d="M121.64,12.14h-1.75V.35h1.75Z" transform="translate(0 0)"/><path class="cls-2" d="M117.14,12.14h-1.76V10.67a3,3,0,0,1-1.13,1.17,3.06,3.06,0,0,1-1.57.43,2.71,2.71,0,0,1-2.08-.79,3.06,3.06,0,0,1-.75-2.19V3.54h1.75V8.9a1.92,1.92,0,0,0,.39,1.3,1.46,1.46,0,0,0,1.17.45,1.86,1.86,0,0,0,1.62-.9,4.3,4.3,0,0,0,.6-2.43V3.54h1.76ZM113.41.05h2.42l-2.17,2.43h-1.34Z" transform="translate(0 0)"/><path class="cls-2" d="M102.47,11.74a3.4,3.4,0,0,1-1.34-1.47l1.26-1.07a3.08,3.08,0,0,0,1,1.11,2.28,2.28,0,0,0,1.32.39,1.54,1.54,0,0,0,1-.29.93.93,0,0,0,.38-.77.86.86,0,0,0-.45-.78,6,6,0,0,0-1.46-.57,4.24,4.24,0,0,1-1.82-.93,2,2,0,0,1-.68-1.55A2,2,0,0,1,102,4.58a2.51,2.51,0,0,1,1.06-.86,3.41,3.41,0,0,1,1.48-.31,3.28,3.28,0,0,1,1.72.43A3,3,0,0,1,107.39,5l-1.15,1a2.1,2.1,0,0,0-.79-.78,1.92,1.92,0,0,0-.93-.24,1.58,1.58,0,0,0-.91.24.7.7,0,0,0-.34.6.8.8,0,0,0,.43.69,6.15,6.15,0,0,0,1.54.57,4.35,4.35,0,0,1,1.85.93,2.13,2.13,0,0,1,.66,1.63,2.36,2.36,0,0,1-.4,1.36,2.71,2.71,0,0,1-1.12,1,3.83,3.83,0,0,1-1.67.35A4,4,0,0,1,102.47,11.74Z" transform="translate(0 0)"/><path class="cls-2" d="M91.84,3.54h1.74V5a3.1,3.1,0,0,1,1.13-1.17,3,3,0,0,1,1.59-.43,2.75,2.75,0,0,1,2.08.79,3.06,3.06,0,0,1,.75,2.19v5.75H97.36V6.77A1.91,1.91,0,0,0,97,5.48,1.47,1.47,0,0,0,95.8,5a1.86,1.86,0,0,0-1.62.9,4.34,4.34,0,0,0-.6,2.44v3.78H91.84Z" transform="translate(0 0)"/><path class="cls-2" d="M89.67,8.34h-6.5a2.68,2.68,0,0,0,.8,1.74,2.39,2.39,0,0,0,1.68.62A2.56,2.56,0,0,0,87,10.36a3.19,3.19,0,0,0,1-1l1.47.8a4.49,4.49,0,0,1-1.6,1.61,4.64,4.64,0,0,1-2.33.54,4,4,0,0,1-2.26-.62A4.09,4.09,0,0,1,81.86,10a5,5,0,0,1-.49-2.17,4.71,4.71,0,0,1,.51-2.16A4.08,4.08,0,0,1,83.35,4a3.89,3.89,0,0,1,2.2-.63A4.19,4.19,0,0,1,87.77,4a3.8,3.8,0,0,1,1.41,1.54,4.58,4.58,0,0,1,.49,2.08Zm-1.8-1.43a2.21,2.21,0,0,0-.75-1.4A2.3,2.3,0,0,0,85.55,5a2.17,2.17,0,0,0-1.45.52,2.56,2.56,0,0,0-.84,1.43Z" transform="translate(0 0)"/><path class="cls-2" d="M75.85,11.75l-3.1-8.21h1.78l2.18,5.93,2.05-5.93h1.76l-4.34,12h-1.7Z" transform="translate(0 0)"/><path class="cls-2" d="M71,11a2.2,2.2,0,0,1,.75,1.77A2.42,2.42,0,0,1,70.71,15a5.22,5.22,0,0,1-5.29,0A2.43,2.43,0,0,1,64.6,12a2.09,2.09,0,0,1,.6-.8,1.72,1.72,0,0,1-.56-1.3,1.94,1.94,0,0,1,1-1.69A2.82,2.82,0,0,1,65,6.34a2.75,2.75,0,0,1,1.52-2.56,3.31,3.31,0,0,1,1.57-.37,3.43,3.43,0,0,1,1.5.33l.9-.9,1,1-.81.83a2.86,2.86,0,0,1,.48,1.63,2.87,2.87,0,0,1-.41,1.53,2.73,2.73,0,0,1-1.11,1A3.6,3.6,0,0,1,66.75,9a.81.81,0,0,0-.36.32.87.87,0,0,0-.1.39.57.57,0,0,0,.23.51,1,1,0,0,0,.61.18H69A3,3,0,0,1,71,11ZM69.5,13.85a1,1,0,0,0,.5-.92c0-.71-.47-1.06-1.42-1.06H67.32a3.84,3.84,0,0,1-.93-.1,1.52,1.52,0,0,0-.34,1,1.16,1.16,0,0,0,.55,1,2.73,2.73,0,0,0,1.5.36A2.61,2.61,0,0,0,69.5,13.85ZM67.07,5.28a1.36,1.36,0,0,0-.42,1,1.4,1.4,0,0,0,1.43,1.45,1.41,1.41,0,0,0,1-.4,1.36,1.36,0,0,0,.42-1,1.36,1.36,0,0,0-.42-1,1.41,1.41,0,0,0-1-.4A1.37,1.37,0,0,0,67.07,5.28Z" transform="translate(0 0)"/><path class="cls-2" d="M62.87,8.34H56.38a2.59,2.59,0,0,0,.8,1.74,2.36,2.36,0,0,0,1.68.62,2.56,2.56,0,0,0,1.35-.34,3.29,3.29,0,0,0,1-1l1.46.8a4.41,4.41,0,0,1-1.6,1.61,4.62,4.62,0,0,1-2.33.54,4.07,4.07,0,0,1-2.26-.62A4.14,4.14,0,0,1,55.07,10a4.83,4.83,0,0,1-.49-2.17,4.71,4.71,0,0,1,.51-2.16A4,4,0,0,1,56.55,4a3.92,3.92,0,0,1,2.21-.63A4.16,4.16,0,0,1,61,4a3.89,3.89,0,0,1,1.42,1.54,4.58,4.58,0,0,1,.48,2.08Zm-1.8-1.43a2.21,2.21,0,0,0-.75-1.4A2.27,2.27,0,0,0,58.76,5a2.2,2.2,0,0,0-1.46.52,2.56,2.56,0,0,0-.84,1.43Z" transform="translate(0 0)"/><path class="cls-2" d="M50.64.49a1.13,1.13,0,0,1,.85-.34,1.16,1.16,0,0,1,1.2,1.18,1.22,1.22,0,0,1-.34.85,1.18,1.18,0,0,1-.86.35,1.15,1.15,0,0,1-.84-.35,1.18,1.18,0,0,1-.34-.85A1.17,1.17,0,0,1,50.64.49Zm1.73,11.65H50.62V3.54h1.75Z" transform="translate(0 0)"/><path class="cls-2" d="M43.47,7.06l3.06-3.52h2.13l-3.39,4,3.61,4.63H46.75l-3.28-4.2v4.2H41.72V.35h1.75Z" transform="translate(0 0)"/><path class="cls-2" d="M42.83,30.58a3,3,0,0,1-.69-2.16V24.11H40.79V22.57h1.35V21l1.76-1.12v2.73h2.22v1.54H43.9v4.24c0,.89.36,1.33,1.07,1.33a1.43,1.43,0,0,0,1-.41l.81,1.35a3.09,3.09,0,0,1-2,.68A2.61,2.61,0,0,1,42.83,30.58Z" transform="translate(0 0)"/><path class="cls-2" d="M49.47,31a2.49,2.49,0,0,1-1-.87A2.43,2.43,0,0,1,48,28.75a2.47,2.47,0,0,1,1-2.06,4.26,4.26,0,0,1,2.64-.75h1.85v-.37A1.43,1.43,0,0,0,53,24.41,2,2,0,0,0,51.64,24a2.17,2.17,0,0,0-1.21.35,2.51,2.51,0,0,0-.82.87l-1.35-.82A3.67,3.67,0,0,1,49.57,23a3.85,3.85,0,0,1,2.07-.55,4,4,0,0,1,2.65.83,3,3,0,0,1,1,2.37v5.53H53.84L53.57,30a2.94,2.94,0,0,1-1.1,1,3.26,3.26,0,0,1-1.58.37A3.38,3.38,0,0,1,49.47,31Zm3.38-1.82a1.92,1.92,0,0,0,.66-1.53v-.28h-1.7a2.56,2.56,0,0,0-1.44.34,1.07,1.07,0,0,0-.51.92,1,1,0,0,0,.38.85,1.65,1.65,0,0,0,1,.29A2.32,2.32,0,0,0,52.85,29.18ZM52,19.08h2.41l-2.16,2.43H50.91Z" transform="translate(0 0)"/><path class="cls-2" d="M57.82,22.57h1.75v1.2a2.81,2.81,0,0,1,1.06-.94,3.18,3.18,0,0,1,1.57-.39,3.42,3.42,0,0,1,2,.58,3.74,3.74,0,0,1,1.32,1.58A5.36,5.36,0,0,1,66,26.87a5.21,5.21,0,0,1-.48,2.27,3.8,3.8,0,0,1-1.34,1.59,3.55,3.55,0,0,1-2,.57A3.44,3.44,0,0,1,60.66,31a3,3,0,0,1-1.09-.88v4.46H57.82Zm5.66,6.34a3,3,0,0,0,.67-2,3,3,0,0,0-.67-2,2.22,2.22,0,0,0-2.88-.42,2.42,2.42,0,0,0-.84,1,3.64,3.64,0,0,0,0,2.94,2.52,2.52,0,0,0,.84,1,2.18,2.18,0,0,0,1.2.34A2.1,2.1,0,0,0,63.48,28.91Z" transform="translate(0 0)"/><path class="cls-2" d="M69.93,31.17H68.18V19.38h1.75Z" transform="translate(0 0)"/><path class="cls-2" d="M73.6,31a2.49,2.49,0,0,1-1-.87,2.43,2.43,0,0,1-.39-1.38,2.47,2.47,0,0,1,1-2.06,4.26,4.26,0,0,1,2.64-.75h1.84v-.37a1.45,1.45,0,0,0-.5-1.16A2,2,0,0,0,75.77,24a2.21,2.21,0,0,0-1.22.35,2.58,2.58,0,0,0-.81.87l-1.35-.82A3.59,3.59,0,0,1,73.7,23a3.85,3.85,0,0,1,2.07-.55,4,4,0,0,1,2.65.83,3,3,0,0,1,1,2.37v5.53H78L77.7,30a3.05,3.05,0,0,1-1.11,1A3.22,3.22,0,0,1,75,31.3,3.35,3.35,0,0,1,73.6,31ZM77,29.18a1.94,1.94,0,0,0,.65-1.53v-.28H75.94a2.51,2.51,0,0,0-1.44.34,1.07,1.07,0,0,0-.51.92,1,1,0,0,0,.37.85,1.66,1.66,0,0,0,1,.29A2.32,2.32,0,0,0,77,29.18Zm-.84-10.1h2.41l-2.16,2.43H75Z" transform="translate(0 0)"/><path class="cls-2" d="M83.69,31.17H82V19.38h1.74Z" transform="translate(0 0)"/><path class="cls-2" d="M88.19,26.09l3.06-3.52h2.14l-3.4,4,3.61,4.63H91.47L88.19,27v4.2H86.44V19.38h1.75Z" transform="translate(0 0)"/><path class="cls-2" d="M94.83,24.62A4,4,0,0,1,96.35,23a4.77,4.77,0,0,1,4.56,0,4,4,0,0,1,1.52,1.6,5,5,0,0,1,0,4.5,4,4,0,0,1-1.52,1.6,4.77,4.77,0,0,1-4.56,0,4,4,0,0,1-1.52-1.6,5,5,0,0,1,0-4.5Zm2,4.27a2.3,2.3,0,0,0,1.83.79,2.34,2.34,0,0,0,1.85-.79,3.26,3.26,0,0,0,0-4,2.34,2.34,0,0,0-1.85-.79,2.3,2.3,0,0,0-1.83.79,3.26,3.26,0,0,0,0,4Z" transform="translate(0 0)"/><path class="cls-2" d="M110.47,22.57v.82l-3.75,6.16h4v1.62h-6.38v-.8l3.8-6.18h-3.56V22.57Z" transform="translate(0 0)"/><path class="cls-2" d="M113.79,31a2.49,2.49,0,0,1-1.05-.87,2.43,2.43,0,0,1-.39-1.38,2.47,2.47,0,0,1,1-2.06,4.26,4.26,0,0,1,2.64-.75h1.85v-.37a1.43,1.43,0,0,0-.51-1.16A2,2,0,0,0,116,24a2.17,2.17,0,0,0-1.21.35,2.51,2.51,0,0,0-.82.87l-1.35-.82A3.67,3.67,0,0,1,113.89,23a3.85,3.85,0,0,1,2.07-.55,4,4,0,0,1,2.65.83,3,3,0,0,1,1,2.37v5.53h-1.41l-.27-1.2a3,3,0,0,1-1.1,1,3.29,3.29,0,0,1-1.58.37A3.38,3.38,0,0,1,113.79,31Zm3.38-1.82a1.92,1.92,0,0,0,.66-1.53v-.28h-1.7a2.56,2.56,0,0,0-1.44.34,1.07,1.07,0,0,0-.51.92,1,1,0,0,0,.37.85,1.68,1.68,0,0,0,1,.29A2.32,2.32,0,0,0,117.17,29.18Zm-.84-10.1h2.41l-2.16,2.43h-1.35Z" transform="translate(0 0)"/><path class="cls-2" d="M122.73,30.77a3.46,3.46,0,0,1-1.34-1.47l1.27-1.07a3.05,3.05,0,0,0,.94,1.11,2.29,2.29,0,0,0,1.32.4,1.53,1.53,0,0,0,1-.3.9.9,0,0,0,.38-.77.85.85,0,0,0-.44-.78,5.89,5.89,0,0,0-1.47-.57,4.24,4.24,0,0,1-1.81-.92,2.12,2.12,0,0,1-.3-2.79,2.66,2.66,0,0,1,1.06-.86,3.41,3.41,0,0,1,1.48-.31,3.32,3.32,0,0,1,1.73.43A3,3,0,0,1,127.65,24l-1.15,1a2.15,2.15,0,0,0-.78-.78,2,2,0,0,0-.93-.24,1.56,1.56,0,0,0-.91.24.68.68,0,0,0-.34.6.81.81,0,0,0,.42.7,6.87,6.87,0,0,0,1.54.56,4.29,4.29,0,0,1,1.85.93,2.14,2.14,0,0,1,.67,1.63,2.44,2.44,0,0,1-.4,1.36,2.67,2.67,0,0,1-1.13,1,3.83,3.83,0,0,1-1.67.35A4,4,0,0,1,122.73,30.77Z" transform="translate(0 0)"/></g></g></svg>